<svg width="958" height="625" viewBox="0 0 958 625" fill="none" xmlns="http://www.w3.org/2000/svg">
<g clip-path="url(#clip0_2_0)">
<path fill-rule="evenodd" clip-rule="evenodd" d="M0 46.2291V327.863L58.4398 333.484C61.6266 324.116 61.9546 328.378 64.6727 323.788C63.6886 323.273 59.5177 323.039 58.1117 319.105C56.7058 315.17 58.5335 312.219 56.9401 307.067C55.6748 303.039 53.9877 302.384 53.9877 297.7C53.9877 294.515 55.0656 289.082 55.4405 285.616C58.6741 283.789 64.4384 282.618 66.4067 278.403C69.7809 271.096 66.4067 271.892 73.6238 267.302C78.0136 264.672 83.2033 263.708 88.2455 264.586C93.1728 265.881 98.3881 265.535 103.101 263.602C106.195 256.857 109.334 257.888 108.913 250.019C108.913 245.663 107.835 248.005 106.101 243.696C110.787 241.261 106.101 245.008 111.865 240.558C113.787 239.059 113.037 236.952 118.379 243.275C134.454 240.605 129.674 243.275 134.688 254.469H141.718C138.859 247.349 139.14 256.389 131.782 241.776C129.767 237.795 130.47 237.42 127.096 235.125C122.972 232.221 123.347 234.235 120.816 229.645C127.377 219.856 135.204 227.631 143.78 226.928L146.592 218.966C146.592 218.217 145.701 219.434 146.873 216.765C152.45 218.825 159.385 234.797 168.524 237.654C175.085 239.715 179.865 234.75 182.583 243.087C186.098 255.124 185.958 244.961 192.94 254.937C200.699 256.145 208.591 256.224 216.372 255.171C217.075 255.171 217.778 255.499 218.997 256.53C220.215 257.56 223.262 260.745 224.667 262.244C223.636 265.382 223.215 263.368 221.809 266.319L226.495 269.691V276.529C223.308 277.888 224.714 276.529 222.137 278.543C224.714 281.588 226.401 281.822 228.838 284.632C234.415 282.478 238.539 276.623 245.616 275.827C254.989 274.703 255.598 282.384 258.035 289.269C260.472 296.154 260.472 292.079 265.346 295.171C271.907 299.339 261.409 297.84 277.296 309.784C279.694 312.167 282.837 313.655 286.2 313.999C287.044 320.931 286.575 319.432 293.136 323.367C303.493 329.643 291.168 326.833 301.431 336.481C304.056 333.203 301.759 332.547 300.541 327.114C305.602 324.397 307.57 321.868 314.928 323.226C331.377 326.318 324.301 322.196 338.36 340.509C341.623 344.226 345.198 347.658 349.045 350.767L358.418 346.083L322.098 282.852C326.316 278.169 334.002 274.984 338.454 270.581C334.377 257.888 333.768 263.321 335.408 247.162C336.533 235.125 335.783 232.877 340.61 222.76C346.843 209.552 354.06 196.016 359.355 183.135C354.669 181.355 349.327 181.074 344.828 179.435C341.266 178.124 342.156 178.592 340.563 174.751C339.672 172.456 338.876 170.536 337.938 168.288C335.345 162.146 331.48 156.623 326.597 152.082C324.91 150.162 324.254 148.803 322.52 146.93L288.637 107.727C285.825 101.123 289.059 99.9518 282.545 95.549L252.364 70.2568C248.99 67.2123 245.897 64.5894 242.429 61.826C223.402 46.838 233.572 50.585 208.452 39.9529C185.02 30.0702 170.961 19.438 152.215 4.30952C147.623 0.422007 147.482 -1.35782 140.593 1.21824C118.285 9.36798 79.0601 21.171 56.2372 28.103C37.4914 34.145 18.7457 40.9833 0 46.2291Z" fill="#9CCC65"/>
<path fill-rule="evenodd" clip-rule="evenodd" d="M344.218 176.952L362.964 181.261C361.136 188.896 347.686 213.673 343.468 222.431C338.407 233.11 338.782 234.328 337.892 247.349C336.204 266.084 337.892 258.075 341.453 271.611C336.428 275.747 331.013 279.386 325.285 282.477C331.188 294.764 337.856 306.668 345.249 318.121L368.26 316.434C371.084 322.411 375.293 327.63 380.538 331.657C393.145 339.338 386.021 335.778 391.364 347.113L398.159 348.659C400.034 349.267 402.33 350.298 404.064 350.954C419.342 357.043 416.952 354.701 425.106 362.429C435.369 372.124 429.464 370.906 438.556 370.766L439.447 369.361L440.196 367.956C443.43 360.508 440.478 358.12 448.773 354.373C453.459 359.338 450.835 358.588 451.959 364.911L470.424 367.815L472.955 362.429L482.327 361.258C484.905 360.555 483.499 360.977 484.905 360.227L486.405 354.232C494.559 353.155 490.622 354.607 495.777 371.187C518.132 374.045 505.525 374.841 525.302 371.187L524.88 385.707C519.022 387.862 519.257 384.068 516.585 390.391C515.23 393.612 514.072 396.912 513.117 400.274C503.744 399.477 503.744 397.042 495.965 400.274C499.386 407.768 499.433 402.522 498.308 413.95L491.935 415.636C491.044 422.006 493.95 421.772 481.39 427.111C481.39 434.137 483.64 433.341 487.248 437.978C490.857 442.615 490.388 441.725 497.465 443.177C504.541 444.629 507.4 456.572 508.384 462.895L514.851 460.132C512.321 450.296 512.649 457.696 513.773 447.626C514.898 437.556 509.696 443.224 508.759 435.636C511.664 430.952 520.053 429.36 526.474 429.406L528.254 413.013C552.764 411.702 537.206 431.233 566.871 416.151C564.809 411.749 563.403 416.432 566.074 408.236C572.963 387.065 564.387 396.854 567.808 387.581C568.839 384.864 570.854 382.194 571.979 379.665C580.602 379.103 575.915 381.398 581.352 381.82C584.257 381.82 586.366 380.227 589.459 379.337L594.474 384.489L605.112 368.424C601.644 358.026 601.269 361.82 594.052 357.23L592.833 343.179L599.535 340.93C598.176 332.359 594.849 323.554 593.068 314.795C591.334 305.428 590.631 295.498 589.178 285.803L559.513 281.587V251.237H560.169L563.262 250.393L564.246 206.085L551.499 211.19C544.891 201.823 538.752 180.044 530.316 174.423C525.63 171.238 515.929 166.461 513.305 162.948C499.573 144.775 511.571 138.967 485.749 152.69C476.657 157.374 478.485 156.999 466.3 156.672C451.21 156.203 437.291 154.611 422.388 153.018C403.877 151.004 398.487 153.487 381.147 157.14C367.053 160.083 352.744 161.884 338.36 162.526L344.218 176.952Z" fill="#9CCC65"/>
<path fill-rule="evenodd" clip-rule="evenodd" d="M369.15 322.57C369.15 322.242 367.932 320.837 367.744 320.65C367.236 319.878 366.656 319.156 366.01 318.495L346.327 320.322L360.855 347.113L350.311 353.108C353.08 357.179 356.672 360.625 360.855 363.225C359.543 377.885 355.325 379.29 347.874 386.644C350.451 389.782 352.091 389.969 354.2 392.311C354.488 394.791 355.119 397.218 356.075 399.524C357.153 401.481 357.626 403.715 357.434 405.941C358.184 420.648 356.965 425.004 365.87 430.531C385.855 443.138 405.044 456.965 423.325 471.935C425.668 473.949 426.043 473.949 428.012 475.495C432.698 479.523 426.371 477.555 449.569 494.651C451.153 496.289 453.079 497.558 455.209 498.367C457.339 499.177 459.622 499.507 461.895 499.335C475.954 499.007 466.112 489.967 496.246 485.893L493.34 479.429C497.362 474.12 501.746 469.097 506.462 464.394C499.339 435.214 497.09 452.778 485.889 440.132C484.436 438.54 482.234 436.198 480.593 434.184C479.414 433.078 478.707 431.56 478.619 429.945C478.532 428.331 479.071 426.746 480.125 425.519C482.046 423.318 485.233 423.458 487.389 421.491C490.294 418.868 488.42 418.587 489.779 413.903L495.965 411.796L496.387 404.957L491.7 400.274C504.588 394.091 496.668 397.135 511.149 397.885L516.163 385.145L522.724 383.834V374.841C516.163 375.122 516.445 376.808 508.665 375.637C503.557 374.888 498.683 374.372 493.669 373.389C492.731 370.251 492.075 367.628 491.372 364.536C489.216 354.841 489.685 357.745 487.81 356.387L486.217 363.459L474.126 364.911L472.017 370.813C439.212 366.691 451.819 367.675 448.21 357.745C442.118 359.525 444.602 366.082 440.337 373.295H430.121C428.574 371.468 428.902 370.625 427.402 368.611C419.435 357.23 397.269 349.876 389.911 351.047C384.662 340.228 389.911 340.649 379.366 334.092C372.337 329.221 373.79 329.408 369.15 322.57Z" fill="#9CCC65"/>
<path fill-rule="evenodd" clip-rule="evenodd" d="M512.555 532.59C517.897 536.102 522.818 538.866 527.645 541.957C535.284 546.641 531.535 548.374 543.72 550.294C552.343 551.699 548.734 548.748 553.42 549.076C557.216 549.404 554.545 550.669 561.387 553.011C576.29 558.069 571.698 557.694 576.525 562.378C582.055 567.858 581.492 562.94 594.427 567.062C596.957 559.146 609.658 546.172 619.452 540.973C621.374 529.545 618.281 533.058 625.966 526.079C629.535 522.504 632.796 518.634 635.714 514.51C641.432 515.634 646.024 517.976 643.4 509.826C641.197 502.988 639.791 504.3 642.744 497.04C647.993 495.775 653.944 497.508 653.195 490.81C652.538 485.003 647.993 484.019 643.822 482.989C634.449 480.694 636.464 479.148 632.293 477.181C629.528 475.916 622.92 474.37 619.733 473.387L616.968 477.696L607.033 476.712L606.283 468.609L596.254 466.97L592.505 472.356C582.429 472.684 582.195 468.656 574.463 471.326C568.988 474.116 562.765 475.084 556.701 474.089C548.734 455.963 542.267 462.193 537.393 462.567C534.159 462.567 529.613 462.567 526.286 462.567C502.854 461.959 509.04 469.078 496.293 477.93C496.668 482.614 497.793 482.286 499.058 486.595C487.623 493.433 474.782 489.874 469.252 501.958C481.952 509.733 468.221 506.642 499.527 521.489C507.025 525.142 506.134 528.28 512.555 532.59Z" fill="#9CCC65"/>
<path fill-rule="evenodd" clip-rule="evenodd" d="M705.964 436.057C715.337 436.292 716.555 438.118 717.164 430.577L719.976 434.278L723.772 431.514C722.976 428.563 722.179 429.079 720.585 426.503C719.668 424.898 719.064 423.134 718.805 421.304C727.475 419.009 727.24 418.4 728.177 415.215C720.07 411.561 709.01 422.802 700.856 416.245C702.074 413.154 702.59 414.793 706.058 412.17L705.355 405.988C691.295 405.988 704.089 409.735 673.955 406.971C675.08 402.288 679.439 392.92 679.673 389.595C679.954 385.379 677.517 384.911 678.923 380.227C679.626 377.979 681.36 374.981 682.297 372.265C680.517 370.331 678.338 368.806 675.911 367.795C673.483 366.785 670.866 366.312 668.238 366.41C669.878 358.682 669.082 363.366 674.565 360.228C676.111 354.326 676.252 356.527 674.565 350.86C675.361 349.97 677.048 348.612 677.095 348.331C677.142 348.05 679.345 347.207 675.689 346.176C671.003 344.771 675.689 346.457 669.972 348.846L669.644 340.93C664.348 339.9 664.958 341.586 659.521 339.806C647.477 335.919 645.462 342.476 632.199 341.961C621.655 341.586 601.597 338.823 594.708 345.755L595.88 355.122C602.206 359.806 601.691 353.202 607.689 368.471L596.489 386.129L611.298 389.173C611.298 396.339 609.283 400.18 610.361 403.88L611.064 405.379C613.032 408.939 614.063 406.081 613.829 412.123C613.829 415.683 612.798 415.402 613.266 419.711C618.694 423.564 624.987 426.025 631.59 426.877C643.306 429.688 642.978 427.158 644.103 439.664C636.698 442.427 634.215 444.348 631.918 455.12C644.337 460.46 635.62 457.79 646.915 453.481C668.332 445.331 665.66 457.322 681.876 456.666C690.311 456.338 691.248 458.305 700.621 457.79L705.776 449.875C704.277 444.816 703.105 447.626 704.136 443.364C704.98 440.993 705.592 438.546 705.964 436.057Z" fill="#9CCC65"/>
<path fill-rule="evenodd" clip-rule="evenodd" d="M675.549 509.826C681.876 509.218 682.813 509.264 681.688 503.972C680.188 497.133 679.814 503.129 677.002 495.682C669.829 494.705 662.538 495.055 655.491 496.712L651.882 498.164C648.508 499.148 647.196 498.164 644.244 499.756C641.01 507.438 651.039 509.499 643.728 519.288L637.214 517.367C624.139 530.669 622.405 530.622 621.983 542.847C612.61 546.126 612.095 548.327 606.986 554.228C603.893 557.835 596.255 564.018 596.255 568.982C596.255 573.947 599.441 571.09 593.818 576.617C590.162 580.223 590.725 579.708 590.115 586.265C588.522 603.408 589.412 595.024 594.333 606.733C591.287 609.356 590.396 606.968 587.96 611.792L595.317 615.679C600.004 613.946 595.317 613.853 602.487 613.478C604.849 613.714 607.233 613.426 609.47 612.635C616.078 610.668 617.484 611.511 620.483 617.319C622.827 621.675 621.139 618.911 625.638 621.347C629.013 623.267 626.951 623.501 631.122 624.063C635.495 624.317 639.81 622.968 643.259 620.269C648.977 625.562 646.962 620.269 659.381 624.953C662.989 616.382 662.427 620.597 661.115 610.902C660.271 604.766 668.847 591.839 672.315 586.64C675.783 581.441 677.423 581.347 677.002 572.917C684.687 572.355 682.297 572.355 687.078 574.79C688.483 565.423 685.344 570.106 690.358 563.924C692.137 561.595 693.042 558.715 692.913 555.787C692.785 552.86 691.632 550.07 689.655 547.905C685.625 542.332 683.75 546.407 678.829 538.538C675.924 539.803 677.423 539.849 674.143 540.037C677.798 529.592 673.393 534.931 674.846 525.096C675.596 519.709 673.909 519.85 674.471 517.274C675.783 512.028 676.158 518.304 675.549 509.826Z" fill="#9CCC65"/>
<path fill-rule="evenodd" clip-rule="evenodd" d="M792.991 314.655C792.1 313.343 790.507 317.277 792.194 310.627C793.272 306.411 804.051 305.193 809.206 297.887C810.846 295.592 810.424 294.421 812.439 291.985C814.455 289.55 814.876 290.065 816.704 288.098C818.532 286.13 818.626 284.725 821.391 283.414C824.156 282.102 827.061 282.805 828.326 282.056C832.357 279.761 827.53 279.948 830.576 275.311C832.122 272.922 833.435 273.906 836.481 274C842.058 274 842.198 270.627 846.463 267.77C849.931 265.428 857.57 264.913 852.93 259.855C849.54 257.415 845.772 255.548 841.777 254.328C837.699 259.433 838.684 256.201 833.622 259.012C831.888 259.855 832.263 260.417 829.967 261.353C826.639 262.712 826.124 259.48 820.875 268.801C812.674 283.461 815.298 270.908 809.628 269.222C806.675 268.847 804.941 271.377 801.098 272.641L801.426 279.948C790.554 281.4 800.864 283.789 788.632 289.315C774.151 296.06 793.319 293.999 766.044 300.416C761.357 301.54 760.889 300.416 759.108 304.631C756.765 309.924 759.108 308.566 753.484 310.111C750.579 310.954 748.001 310.439 750.86 316.388C745.939 316.388 744.955 317.605 742.659 317.324C739.519 316.856 742.002 313.203 730.286 322.617C722.273 329.081 733.239 331.984 724.803 337.558C704.417 351.094 712.009 345.614 713.275 351.937C705.167 356.293 709.385 358.635 717.352 366.644C721.353 371.086 725.886 375.019 730.849 378.354C730.849 389.829 734.504 388.705 731.927 399.758C731.224 402.709 734.973 412.592 743.221 409.126C743.69 403.693 744.533 407.768 740.971 404.021C742.284 402.943 745.33 402.147 745.658 400.976C744.444 395.354 742.373 389.952 739.519 384.958C741.623 383.635 743.852 382.522 746.173 381.632C746.173 375.965 745.798 364.958 754.187 366.691C759.764 367.862 758.217 375.262 765.716 378.354C772.839 374.513 766.044 374.607 776.776 372.265C779.167 371.83 781.496 371.107 783.712 370.11C788.164 367.956 786.008 368.424 788.398 366.457L799.364 361.024C804.051 358.869 804.473 356.34 804.051 350.438C813.189 346.27 809.487 345.755 805.129 334.233L802.598 328.659C806.3 322.476 806.394 326.739 809.206 321.493C807.644 318.156 804.833 315.566 801.38 314.28C795.568 311.048 797.49 315.498 792.991 314.655Z" fill="#9CCC65"/>
<path fill-rule="evenodd" clip-rule="evenodd" d="M609.236 406.597C606.94 403.271 607.455 404.77 608.064 399.618C608.439 396.527 608.861 393.81 609.048 390.719C590.303 389.079 593.068 386.784 588.944 382.007C586.085 382.663 584.257 384.255 581.211 384.208C576.525 384.208 578.774 382.616 574.088 381.913C565.793 389.782 572.026 392.358 571.463 398.775C570.82 401.572 569.91 404.301 568.745 406.924C566.121 415.308 568.745 408.751 569.308 416.292C564.032 421.357 557.033 424.236 549.718 424.348C543.438 423.505 541.376 414.231 530.973 414.981L528.442 431.561C521.037 431.561 515.132 431.561 511.243 436.526C513.352 439.242 513.633 437.556 515.226 440.46C518.038 445.659 514.523 449.828 515.226 454.511L518.038 459.991C523.334 459.991 529.098 460.46 534.394 460.46C539.43 459.785 544.498 459.379 549.578 459.242C552.269 463.762 555.409 467.998 558.95 471.888C568.933 473.387 573.291 467.626 579.383 467.766C587.491 467.766 587.21 476.057 595.645 464.488L608.392 466.689C611.111 475.26 604.877 474.371 616.312 475.307C616.501 474.292 616.882 473.322 617.437 472.45C618.609 470.53 617.672 471.888 619.077 470.67C621.28 471.326 637.401 478.164 640.916 473.2C644.29 459.991 635.386 461.022 629.481 454.839C634.73 439.711 633.605 442.708 639.838 438.915C640.537 438.526 641.196 438.071 641.807 437.556C640.682 429.594 643.728 431.889 627.466 428.189C621.641 427.085 616.135 424.701 611.345 421.21C609.892 411.468 614.157 413.903 609.236 406.597Z" fill="#9CCC65"/>
<path fill-rule="evenodd" clip-rule="evenodd" d="M878.471 318.917C878.893 315.591 879.737 313.952 878.471 311.376C876.222 312.266 875.8 311.376 875.285 315.404C873.879 326.317 879.971 317.418 870.176 329.97L864.553 327.91C862.646 333.086 862.004 338.641 862.678 344.115C858.648 342.336 861.085 343.132 857.992 339.432C854.805 341.399 857.335 339.432 854.945 343.085L852.93 337.933C845.854 337.418 849.79 338.635 846.322 339.244C840.464 340.322 846.978 338.542 840.605 338.214C834.231 337.886 836.247 341.352 830.998 335.169C826.311 336.996 832.638 336.902 826.593 337.933C826.218 333.249 830.06 321.54 820.547 318.121C814.642 316.013 811.502 324.537 804.941 327.488C805.749 332.049 807.334 336.437 809.628 340.462C814.08 348.331 808.69 345.755 811.127 351.094L825.187 370.532L847.494 367.394L844.729 374.7L851.149 378.4C853.852 376.405 856.306 374.093 858.46 371.515C865.209 365.099 866.333 370.532 868.77 364.63C870.504 360.415 868.77 362.757 871.067 360.743C873.223 359.628 875.552 358.884 877.956 358.541C888.172 356.059 884.517 356.902 893.562 358.541C895.801 358.837 898.074 358.338 899.984 357.131C901.893 355.924 903.319 354.086 904.012 351.937C906.309 345.567 903.497 343.225 903.309 340.322C903.343 340.12 903.343 339.914 903.309 339.713C899.935 341.024 902.091 340.134 899.232 342.757C896.514 341.773 889.297 339.994 887.844 339.197C886.344 333.764 890.047 334.045 888.922 326.364C885.267 323.694 887.422 326.926 884.236 322.43C881.658 319.057 883.486 319.151 878.471 318.917Z" fill="#9CCC65"/>
<path fill-rule="evenodd" clip-rule="evenodd" d="M829.92 409.313C839.293 407.814 835.356 409.313 838.355 403.552C846.463 403.552 842.573 402.428 848.103 399.43C855.32 397.744 870.27 408.33 872.566 408.798V407.674C873.551 404.255 873.832 404.91 877.253 405.145V413.575C879.565 413.329 881.695 412.206 883.205 410.437L886.672 406.737C886.672 406.409 887.001 406.362 887.188 406.175C893.421 408.938 890.422 406.175 895.858 404.442C895.858 401.304 895.061 403.786 893.562 399.337C897.779 396.62 897.592 395.824 900.544 392.124C904.903 386.456 905.231 392.124 905.746 384.583C900.685 381.866 892.156 382.663 887.001 380.508C882.642 378.775 885.126 376.995 881.33 375.122C878.277 374.305 875.112 373.989 871.957 374.185L868.677 369.22C860.241 371.187 856.867 376.855 852.368 381.726L842.058 376.059L844.026 370.11C839.209 370.489 834.42 371.162 829.686 372.124C824.343 373.342 815.158 382.054 811.268 386.175C808.69 388.939 810.706 387.534 806.581 389.36C794.069 394.7 807.519 398.025 815.111 398.728C814.501 408.751 813.564 404.302 817.876 410.906C821.719 410.625 825.843 410.016 829.92 409.313Z" fill="#9CCC65"/>
<path fill-rule="evenodd" clip-rule="evenodd" d="M295.245 333.952C293.464 330.392 294.776 330.111 293.417 327.582C291.027 322.898 287.091 326.223 284.045 319.713C281.561 314.42 284.982 317.746 279.686 315.029C274.25 312.277 269.581 308.222 266.096 303.226C261.69 292.454 261.925 299.432 257.238 294.702C255.4 290.69 253.835 286.559 252.552 282.337C247.865 273.438 233.431 283.086 231.557 287.02C236.243 291.985 237.977 287.629 240.929 295.264C236.993 294.14 232.869 291.704 229.12 292.641C227.573 300.65 232.869 301.212 233.103 306.692C233.337 312.172 228.417 310.205 228.417 319.947C241.398 327.347 245.756 337.792 258.129 333.998C267.501 331.282 270.641 333.343 279.124 333.998C283.81 334.326 280.811 330.813 286.013 333.998C293.839 339.104 284.748 339.666 299.182 339.853C297.999 337.803 296.684 335.832 295.245 333.952Z" fill="#9CCC65"/>
<path fill-rule="evenodd" clip-rule="evenodd" d="M931.897 382.007C937.614 382.288 934.755 383.131 937.614 378.447C940.473 373.764 937.614 378.026 941.176 374.7L942.675 373.108L943.144 372.593C948.299 367.487 955.235 370.016 957.953 366.316C957.953 365.614 959.406 361.633 951.392 363.459C938.364 366.363 950.83 363.131 927.96 361.586C925.054 356.902 928.71 358.401 922.383 353.061C921.165 352.031 922.383 353.295 920.837 351.563C919.29 349.83 920.602 350.345 918.259 348.986C909.214 343.694 904.668 355.684 904.622 355.731C898.201 366.832 887.376 354.326 871.395 363.225C870.551 368.424 870.458 367.909 873.176 372.124H882.83C886.251 380.414 893.421 379.478 908.09 381.866L907.574 390.063C911.276 391.421 913.901 393.95 918.072 395.496C919.852 386.456 918.353 390.25 917.322 387.815C915.775 384.068 919.103 386.972 914.744 380.414C921.633 380.133 916.525 379.899 919.665 382.147C922.615 384.925 926.445 386.582 930.491 386.831C931.147 385.66 930.491 386.831 931.334 384.677C931.522 384.536 931.85 382.241 931.897 382.007Z" fill="#9CCC65"/>
<path fill-rule="evenodd" clip-rule="evenodd" d="M723.304 375.918C718.242 371.937 708.682 363.928 707.323 357.464C705.542 348.94 706.667 353.623 704.183 349.221C699.497 350.954 699.731 349.548 697.716 353.436C700.574 356.106 702.402 354.794 702.964 358.354C703.527 361.914 701.418 361.586 702.964 367.721C703.332 369.279 703.983 370.756 704.886 372.077C709.994 379.993 703.105 374.794 707.182 381.211C696.31 383.974 692.467 376.995 684.359 373.81C679.111 384.536 682.11 380.087 681.782 389.735C681.782 393.342 677.845 400.555 677.095 404.957C692.795 407.018 694.904 403.505 707.276 403.224C708.588 415.355 707.745 409.875 715.009 410.999C722.273 412.123 713.087 408.939 732.911 408.892C730.661 404.208 728.693 406.316 729.162 401.304C730.005 391.936 732.489 403.458 728.412 381.866C727.662 378.447 725.459 377.557 723.304 375.918Z" fill="#9CCC65"/>
<path fill-rule="evenodd" clip-rule="evenodd" d="M349.701 381.585C357.34 373.155 356.872 375.169 358.512 365.333L345.859 351.89C339.128 345.697 333.15 338.733 328.05 331.141C323.364 325.006 306.961 322.242 302.931 329.643C306.586 331.516 309.632 330.579 312.96 331.61L327.347 341.914C331.049 346.129 325.801 342.148 332.69 348.799C334.517 350.532 334.096 349.314 334.705 352.64C334.932 354.489 335.042 356.35 335.033 358.213C335.314 365.52 341.266 381.913 344.64 384.911C348.108 384.068 347.218 384.349 349.701 381.585Z" fill="#9CCC65"/>
</g>
<defs>
<clipPath id="clip0_2_0">
<rect width="958" height="625" fill="white"/>
</clipPath>
</defs>
</svg>
